<svg id="Layer_1" data-name="Layer 1" xmlns="http://www.w3.org/2000/svg" xmlns:xlink="http://www.w3.org/1999/xlink" viewBox="0 0 360 360"><defs><style>.cls-1{fill:url(#linear-gradient);}.cls-2{fill:#00c0f4;}.cls-3{fill:#fff515;}</style><linearGradient id="linear-gradient" x1="13.5" y1="180" x2="346.5" y2="180" gradientUnits="userSpaceOnUse"><stop offset="0" stop-color="#007785"/><stop offset="1" stop-color="#0071bc"/></linearGradient></defs><circle class="cls-1" cx="180" cy="180" r="166.5"/><path class="cls-2" d="M76.76,176.27c0-64,55.23-115.92,123.36-115.92a129.12,129.12,0,0,1,57.63,13.43A136.28,136.28,0,0,0,185.44,53.3c-72.27,0-130.87,55.06-130.87,123s58.6,123,130.87,123a136.19,136.19,0,0,0,72.31-20.48,129.12,129.12,0,0,1-57.63,13.43C132,292.19,76.76,240.29,76.76,176.27Z"/><path class="cls-2" d="M155.63,115.25c-1.22.3-2.43.63-3.64,1a7.69,7.69,0,0,1-1.87.34,3.86,3.86,0,0,1-1.52-.29,4.13,4.13,0,0,1-1.66-1.21,6.15,6.15,0,0,1-1.13-2.15,5.48,5.48,0,0,1,0-4.21,5.21,5.21,0,0,1,3.45-2.39c1.29-.36,2.58-.71,3.87-1l.51,2c-1.26.32-2.52.66-3.77,1a3.2,3.2,0,0,0-1,.47,1.77,1.77,0,0,0-.54.76,4.43,4.43,0,0,0,.21,2.66,3.44,3.44,0,0,0,1.13,1.94,2.3,2.3,0,0,0,1.9.08c1.19-.34,2.4-.66,3.6-1Z"/><path class="cls-2" d="M165.46,113.18c-.8.13-1.61.28-2.41.43l-.78-4.08c-1.18.23-2.37.47-3.55.73.3,1.35.6,2.7.89,4.06q-1.2.25-2.4.54-1.19-5-2.39-10c.86-.21,1.73-.41,2.59-.59.29,1.31.58,2.62.86,3.94,1.2-.27,2.4-.51,3.61-.74-.25-1.32-.5-2.64-.76-4q1.31-.26,2.61-.48Q164.6,108.1,165.46,113.18Z"/><path class="cls-2" d="M177.32,111.71q-1.37.11-2.73.24l-1.16-2.26c-1.38.15-2.76.32-4.13.5-.19.83-.38,1.65-.56,2.47-.87.12-1.74.26-2.61.4q1.32-5.43,3-10.84l2.66-.32Q174.73,106.74,177.32,111.71Zm-5-4c-.54-1-1.1-2-1.66-3-.29,1.09-.57,2.18-.84,3.26C170.68,107.86,171.51,107.76,172.35,107.67Z"/><path class="cls-2" d="M189.57,111.36q-1.2,0-2.4,0c.05-2.25.1-4.49.16-6.74-.79,2.24-1.54,4.5-2.25,6.76l-2.47.06c-.85-2.25-1.73-4.49-2.66-6.73.18,2.28.35,4.55.53,6.83-.83,0-1.65.09-2.47.15q-.37-5.13-.73-10.26c1.21-.09,2.42-.16,3.64-.21,1,2.36,1.91,4.74,2.8,7.12.76-2.42,1.56-4.85,2.4-7.26,1.22,0,2.43,0,3.65,0C189.7,104.5,189.64,107.93,189.57,111.36Z"/><path class="cls-2" d="M201.63,105.23a3.63,3.63,0,0,1-.48,1.55,2.76,2.76,0,0,1-1.05,1,3.38,3.38,0,0,1-1.29.42q-.41,0-.87,0a9.81,9.81,0,0,1-1.16,0q-1.22-.09-2.43-.15c-.06,1.15-.12,2.31-.19,3.46l-2.44-.11.36-10.28c1.7.06,3.4.15,5.1.28a11.24,11.24,0,0,1,2,.28,5.93,5.93,0,0,1,.7.22,3.09,3.09,0,0,1,.51.29,3.2,3.2,0,0,1,1,1.31A3.49,3.49,0,0,1,201.63,105.23Zm-2.81-.27a1.11,1.11,0,0,0-.32-1,2.87,2.87,0,0,0-1.51-.42l-2.38-.15c-.05.86-.1,1.71-.14,2.56l2.47.16a4.28,4.28,0,0,0,.81,0,1.3,1.3,0,0,0,.58-.21A1.1,1.1,0,0,0,198.82,105Z"/><path class="cls-2" d="M205,112.57l-2.54-.33c.41-3.4.82-6.81,1.22-10.21l2.74.35Q205.69,107.48,205,112.57Z"/><path class="cls-2" d="M217.83,109.74a5.58,5.58,0,0,1-2.19,3.62,6.72,6.72,0,0,1-7.74-1.49,5.93,5.93,0,0,1-.62-4.27,5.12,5.12,0,0,1,1.94-3.68,7.11,7.11,0,0,1,8.2,1.61A5.31,5.31,0,0,1,217.83,109.74Zm-2.69-.6a3.86,3.86,0,0,0-.12-2.58,2.42,2.42,0,0,0-1.84-1.17,2.48,2.48,0,0,0-2.12.39,2.7,2.7,0,0,0-.66.9,5.39,5.39,0,0,0-.41,1.38,4.25,4.25,0,0,0,.18,2.63,2.36,2.36,0,0,0,1.77,1.15,2.39,2.39,0,0,0,2.05-.41A3.89,3.89,0,0,0,215.14,109.14Z"/><path class="cls-2" d="M227,117.64c-.87-.28-1.75-.56-2.62-.82-.62-2.63-1.32-5.25-2.08-7.88-.58,2.27-1.16,4.53-1.73,6.8q-1.22-.33-2.43-.63,1.23-5,2.47-10,1.54.39,3.09.81c.75,2.49,1.42,5,2,7.48.62-2.12,1.23-4.25,1.84-6.37.87.26,1.74.54,2.61.82Z"/><path class="cls-3" d="M260.87,125.13q-.06-4.51-.07-9a14.74,14.74,0,0,0-5.74-12,46.5,46.5,0,0,0-9.4-5.7,115,115,0,0,0-20.45-7.29,150.33,150.33,0,0,0-22.87-4.28c-4.84-.5-9.68-.8-14.53-.83-4.4,0-8.79.27-13.18.67-3.87.35-7.71.89-11.53,1.55-3.49.61-6.95,1.39-10.39,2.25s-7,1.89-10.47,3a93.4,93.4,0,0,0-12.11,4.93c-3.84,1.92-7.59,4-10.62,7.1a13.76,13.76,0,0,0-4.1,9.74c0,2.73,0,5.46-.07,8.19-.08,3.94-.1,7.89-.19,11.84-.13,5,0,10,0,15,0,8.24,0,16.47.14,24.7.1,5.72.08,11.43,0,17.15A71.38,71.38,0,0,0,118,212.48a63,63,0,0,0,12.18,23.59,75,75,0,0,0,14.24,13,172.73,172.73,0,0,0,16.26,10c4.9,2.74,9.85,5.39,14.76,8.11,4.08,2.27,8.11,4.64,12.05,7.15a.88.88,0,0,0,1.15,0c.67-.48,1.35-.92,2.06-1.34,2.06-1.22,4.15-2.39,6.2-3.62,4.09-2.45,8.28-4.7,12.46-7,5.85-3.17,11.67-6.39,17.27-10a93.55,93.55,0,0,0,12.84-9.72,64.92,64.92,0,0,0,7.55-8,60.3,60.3,0,0,0,11-22c1.35-5.15,2.69-10.3,2.8-15.64.16-7.29.2-14.59.2-21.88C261,158.5,261.08,141.81,260.87,125.13ZM171.82,257m-20.94-12.08a110,110,0,0,1-11.74-9.58,54.67,54.67,0,0,1-5.09-5.78,26.63,26.63,0,0,1-2.39-3.47l-.37-.67a.72.72,0,0,1,.55.48,85.59,85.59,0,0,0,15.29,12.87c6,4.05,12.38,7.54,18.72,11.05,6.83,3.78,13.72,7.43,20.34,11.56,2,1.24,2,1.22,3.95,0,5.3-3.37,10.81-6.38,16.3-9.41,7-3.86,14.08-7.55,20.74-12a82.46,82.46,0,0,0,10.48-7.72,60.08,60.08,0,0,0,6.74-6.51h0a.83.83,0,0,1,.47-.52c.06.32-.13.5-.3.69a72.29,72.29,0,0,1-5.26,6.94,76,76,0,0,1-9.65,8.9,65.15,65.15,0,0,1-6.22,4.27c-4.74,3.06-9.67,5.78-14.56,8.57-1.57.9-3.17,1.78-4.76,2.62-1.31.69-2.58,1.5-3.91,2.17-1.09.53-2.18,1.22-3.26,1.79s-2,1.19-3,1.73a23.25,23.25,0,0,0-3.82,2.16c-1.54,1.27-2.7,1.37-4.21,0Zm12.53-106.55a42.15,42.15,0,0,0-3.44-5.2.72.72,0,0,1,0-1.12c.59-.56,1.14-1.17,1.77-1.7,1-.86,1.58-.76,2.22.43a22.89,22.89,0,0,1,2,5.63,13.65,13.65,0,0,1-.3,6.41A27.14,27.14,0,0,0,163.41,138.38Zm90.45,41.19A71.49,71.49,0,0,1,251,199.23a66.84,66.84,0,0,1-6.25,14.27c-3.9,7-9.66,12.16-15.86,16.94-3.21,2.46-6.68,4.53-10.1,6.68-.59.37-.75.17-.7-.43a3.74,3.74,0,0,0-.48-2.1c-1-1.89-1.82-3.89-2.79-5.81a55.82,55.82,0,0,0-3.3-5.12.8.8,0,0,0-.3-.33c-1.58-.81-2.87-2.05-4.39-2.91-2.18-1.23-4.52-2.19-6.75-3.35a7.62,7.62,0,0,1-2.51-2.22,1.47,1.47,0,0,1-.2-1.22,25.67,25.67,0,0,1,1.38-5c.48-1.17.44-2.54.85-3.77.64-1.9,1.27-3.79,1.89-5.69a1.25,1.25,0,0,1,.58-.79c1.38-.66,1.49-2,1.63-3.22a13.52,13.52,0,0,0,0-1.91.8.8,0,0,0-.2-.68c-.83-.63-.59-1.41-.37-2.23a24.84,24.84,0,0,0,.89-5,1.79,1.79,0,0,1,.83-1.6,4,4,0,0,0,1.66-3.1c.09-.51-.28-.73-.65-.86a13,13,0,0,1-4.41-2.83,13.15,13.15,0,0,0-6.14-3c.87-.46,1.71.05,2.52-.34a6.57,6.57,0,0,0-2.6-1.24c-2.52-.66-5.06-1-7.57.12-.13.06-.27.18-.41.06s0-.34,0-.5.39-.6.11-.83-.55.12-.81.25a11.21,11.21,0,0,0-5.63,5.7c0,.08-.11.13-.18.2a20.2,20.2,0,0,1-.4-2.73,11,11,0,0,0-.53,3.5,2.14,2.14,0,0,1-1.2,1.95,3.1,3.1,0,0,0-1.64,2.58l1.56-.85c.22.25.07.47,0,.67-1,2.64-.71,5.32-.18,8a2.12,2.12,0,0,1-.06,1.32,4.24,4.24,0,0,0,.17,3.69,2.5,2.5,0,0,0,2,1.64,1.38,1.38,0,0,1,1.29,1.3c.41,2.11.53,4.26.87,6.39.28,1.75-.79,3.14-2.08,4.22a4.38,4.38,0,0,1-5.44.64,34,34,0,0,0-3.54-1.58c-1-.45-1.53-1.44-2.33-2.12-2.46-2.11-1.85-4.8-1.42-7.46.13-.82.14-1.66.21-2.48a41.46,41.46,0,0,0,.28-4.6c-.08-2,.29-3.93.13-5.9-.19-2.37-.16-4.74-.12-7.11,0-1.18.47-2.33.14-3.52a3.65,3.65,0,0,1-.2-1.61c0-.26,0-.62.17-.78.93-.92,1.26-2.22,2-3.2.92,1.83.73,3.77.76,5.69,0,.74-.06,1.65.78,2s1.49-.28,2.1-.77a29.05,29.05,0,0,0,3.53-3.39,12,12,0,0,0,2.43-3,5.84,5.84,0,0,1,1.56-1.76c.85-.74,1.25-1.84,2.24-2.43a7.3,7.3,0,0,0,1.41-1.42c.15-.17.42-.33.3-.61s-.42-.16-.64-.17c-1.89,0-3.76.3-5.64.24a2.73,2.73,0,0,1-2.63-1.44,48.6,48.6,0,0,0-5.25-7.53c-1.42-1.71-2.64-3.62-4-5.41a2.35,2.35,0,0,1-.15-2.66,15.17,15.17,0,0,0,1.67-5.35c.12-.87-.18-1.78-.13-2.67a18.2,18.2,0,0,0-1.1-6.3,18.9,18.9,0,0,0-3.6-6.29,1.75,1.75,0,0,0-.74-.52h-.56c-1.36.76-2.18,2.09-3.32,3.08a1.79,1.79,0,0,0-.13.14c-.57.54-1,1.47-1.67,1.6s-1.17-.9-1.73-1.41-.9-.05-1.23.28c-2.91,3-5.8,6-8.7,8.95q-4.74,4.86-9.49,9.7c-1.13,1.15-1.12,1.36.08,2.36,1,.81,1,.83.07,1.77l-3.3,3.4c-1.13,1.17-1.1,1.76.2,2.72a19.57,19.57,0,0,0,12.75,4.06,13.94,13.94,0,0,0,6.09-1.29A9.06,9.06,0,0,1,157,160a8.68,8.68,0,0,0,4.29-1c.4-.24.84-.54,1.35-.23s.19.81.19,1.23a66.66,66.66,0,0,1-.73,9.15c-.21,1.39-.34,2.82-1.44,3.93-.46.48-.39,1.25-.42,1.91a22.61,22.61,0,0,1-1.7,6.49c-1.08,3-1.78,6.1-2.67,9.16a20.33,20.33,0,0,0-.92,7.78,4.28,4.28,0,0,1-.34,2.23,2,2,0,0,0-.19,1.16c.36,1.84.12,3.72.51,5.57a12.72,12.72,0,0,0,1.09,3.36,43.11,43.11,0,0,1,2.66,7.63c.71,2.34,1.49,4.67,2.11,7a42,42,0,0,1,1,11.19c0,1,0,1.93,0,3-1.15-.63-2.19-1.17-3.2-1.77a110.41,110.41,0,0,1-15.92-11,48.72,48.72,0,0,1-10.79-12.26,61.79,61.79,0,0,1-4.24-8.21c-.77-1.94-1.5-3.89-2.14-5.86a60.37,60.37,0,0,1-3.07-18.75c0-4.77-.05-9.54-.09-14.31,0-2.31-.3-4.63-.11-6.91.35-4.12.06-8.25.37-12.37.07-1,.08-2,.1-3a7.61,7.61,0,0,1,3.47-6.26,59.17,59.17,0,0,1,13.35-7,119.63,119.63,0,0,1,15.33-4.85,58.74,58.74,0,0,1,8-1.68h0a.73.73,0,0,1,.55-.16h0c2.3-.42,4.59-.83,6.91-1.1,2.59-.29,5.18-.59,7.78-.79s5.09-.37,7.63-.4c3.79,0,7.58,0,11.37.32a141.74,141.74,0,0,1,16.66,2.33A128.37,128.37,0,0,1,241.19,134c3.29,1.46,6.65,3,9.31,5.46,1.75,1.64,3.17,3.59,3.2,6.27Q253.91,162.67,253.86,179.57ZM149.71,159c-4.21,1.36-8,.19-11.66-1.36a2.18,2.18,0,0,1-1-.81c-.33-.53-.34-.82.19-1.46s.56-.67,1-1.16c.68-.79,1.4-1.15,2.13-.57a38.83,38.83,0,0,0,8.89,5.14C149.38,158.8,149.48,158.86,149.71,159Zm52.46-65c1.81.25,3.64.49,5.45.78,2.57.42,5.12.95,7.69,1.4,3.43.61,6.77,1.6,10.13,2.47,3,.77,5.81,1.87,8.72,2.79,2.55.8,5,1.91,7.41,2.94a61,61,0,0,1,6.3,3.42,15.06,15.06,0,0,1,4.55,3.94c1.2,1.56,1.1,3.34,1.18,5.11.07,1.45,0,2.92.08,4.37.25,2.91.12,5.82.22,8.73a25.3,25.3,0,0,1-.1,2.89,7.78,7.78,0,0,1-2.44-1.27c-8.35-5-17.46-8-26.76-10.5a145.51,145.51,0,0,0-17.55-3.57,119.46,119.46,0,0,0-14.13-1.29c-4.42-.11-8.84-.1-13.27.18a150.55,150.55,0,0,0-18.92,2.41,139.9,139.9,0,0,0-20.24,5.44,74.74,74.74,0,0,0-16.7,7.93c-.22.15-.42.31-.63.47-.46.34-.64.07-.74-.41a4.42,4.42,0,0,1,0-.73c0-2.06,0-4.13,0-7.2,0-2.52,0-6,.28-9.56a6.79,6.79,0,0,1,2.42-4.6c.83-.76,1.8-1.4,2.67-2.1a16.27,16.27,0,0,1,3.08-2.07S167.16,89.24,202.17,94Zm-48.11,3.55"/></svg>