<svg id="Layer_1" data-name="Layer 1" xmlns="http://www.w3.org/2000/svg" xmlns:xlink="http://www.w3.org/1999/xlink" viewBox="0 0 1080 1080"><defs><style>.cls-1{fill:url(#linear-gradient);}.cls-2{fill:url(#linear-gradient-2);}.cls-3{fill:url(#linear-gradient-3);}</style><linearGradient id="linear-gradient" x1="600.47" y1="624.85" x2="917.2" y2="624.85" gradientUnits="userSpaceOnUse"><stop offset="0" stop-color="#b3b3b3"/><stop offset="0.13" stop-color="#bdbdbd"/><stop offset="0.36" stop-color="#d8d8d8"/><stop offset="0.5" stop-color="#ededed"/><stop offset="0.73" stop-color="#f2f2f2"/><stop offset="1" stop-color="#fff"/></linearGradient><linearGradient id="linear-gradient-2" x1="183.06" y1="624.9" x2="498.07" y2="624.9" gradientUnits="userSpaceOnUse"><stop offset="0" stop-color="#666"/><stop offset="0.13" stop-color="#707070"/><stop offset="0.35" stop-color="#8b8b8b"/><stop offset="0.44" stop-color="#999"/><stop offset="0.77" stop-color="#999"/><stop offset="0.82" stop-color="#9d9d9d"/><stop offset="0.87" stop-color="#a8a8a8"/><stop offset="0.91" stop-color="#bbb"/><stop offset="0.95" stop-color="#d5d5d5"/><stop offset="0.99" stop-color="#f7f7f7"/><stop offset="1" stop-color="#fff"/></linearGradient><linearGradient id="linear-gradient-3" x1="337.52" y1="542.44" x2="762.02" y2="542.44" gradientUnits="userSpaceOnUse"><stop offset="0" stop-color="#f9df7b"/><stop offset="0.1" stop-color="#e1bc55"/><stop offset="0.2" stop-color="#cea137"/><stop offset="0.3" stop-color="#c08e21"/><stop offset="0.4" stop-color="#b88214"/><stop offset="0.49" stop-color="#b57e10"/><stop offset="0.49" stop-color="#b88214"/><stop offset="0.49" stop-color="#c08d21"/><stop offset="0.5" stop-color="#cda036"/><stop offset="0.5" stop-color="#dfbb53"/><stop offset="0.5" stop-color="#f7dc78"/><stop offset="0.5" stop-color="#f9df7b"/><stop offset="1" stop-color="#c49328"/></linearGradient></defs><circle cx="546.79" cy="542.61" r="494.61"/><path class="cls-1" d="M916.37,463.15c-.38-4.29-2.32-6.2-7.37-8-84-30.22-166.37-62.86-245.92-99.35l-37.17-17c-8.65,38.28-17,75.46-25.44,112.63l1.45.26,26.13-57.48c3.33,1.31,5.49,2,7.48,3,65.84,30.62,134.07,58,204,82.92,11.31,4,14.45,9,14.66,17.47,1,39.61-5.86,78.4-20,116.54-21.58,58.28-57.43,111-109.35,157.37-14,12.53-29.14,24.41-44.51,36-14,10.55-28.92,20.35-45,31.54-5.45-42.54-10.53-82.21-15.61-121.88l-2.62.13c1.16,64.69-.14,129.27-16.64,193.73a30.1,30.1,0,0,0,3.76-1.08c68.55-34.92,129-76.38,178.39-126.39,70.62-71.56,114.27-151.41,128.67-240.14C915.62,516.63,918.77,490.05,916.37,463.15Z"/><path class="cls-2" d="M252.64,483c57-22.82,114.24-45.25,171.22-68.06,15.71-6.29,30.72-13.56,47.33-20.94,8.43,18.44,16.5,36.08,24.56,53.73l2.32-.41c-8.19-35.87-16.38-71.74-24.78-108.55-20.53,9.41-38.76,17.95-57.23,26.19-73.56,32.84-149.21,62.76-226.46,90.38-4.95,1.77-6.71,3.88-6.53,7.73,1,21.29.59,42.66,3,63.85a381.43,381.43,0,0,0,32.54,117q36.59,79.41,104.75,146C360.12,825.77,402.8,857.07,450,885c15.2,9,31.05,17.36,46.61,26-13.48-66.36-20.67-132.34-14.32-198.94l-2.7-.12c-5.68,41.29-11.36,82.57-17.08,124.1-2.23-1.29-4.95-2.65-7.33-4.29-18-12.45-36.66-24.42-53.74-37.55-36.46-28-66.75-59.53-91-94.21-31.93-45.71-53.33-94.09-60.76-145.46-3.09-21.37-2.78-43-3.39-64.58C246.24,487.63,249.63,484.22,252.64,483Z"/><path class="cls-3" d="M761.9,290.47c-1.83-13.25-12.21-22.59-27.41-22.76q-11.49-.12-23-.14H711c-25.49-.05-51,.19-76.48.2-15.46,0-30.92-.28-46.38-.19-5.16,0-7.16-1.9-7.44-5.32-.46-5.73-.49-11.49-1.1-17.22-3.68-34.6-7.56-69.19-11.05-103.8-.21-2,1.65-4.77,3.71-6.28C587,124.12,588.35,108,575,97.36c-13.69-10.93-35.52-11.27-49.64-.79s-13.38,26.93,1.38,38.19c2.35,1.79,4.16,5.08,3.92,7.54-3.86,39.64-8.24,79.24-12.09,118.88-.5,5.14-3,6.78-9.35,6.74-17.57-.13-35.14,0-52.71,0-29.1-.09-58.2-.49-87.28-.25a45.58,45.58,0,0,0-17.9,3.78c-11.43,5.3-16,15.95-12.74,26.06,3,9.32,15,16.9,28.33,17.83,12.87.9,25.76-4.22,31-13.61,2.84-5.13,6.81-7.63,13.45-6.55,16.4,2.65,32.89,5.24,48.9,8.94,17.08,3.94,27.86,11.94,30.35,26.78,7.06,41.95,16.46,83.67,23.28,125.64,7.55,46.53,5.69,93.12-.83,139.77-6.42,45.92-12.81,92-15,138.09-1.7,36.16,1.61,72.59,5.31,108.75a409.87,409.87,0,0,0,26.29,107.64c5.65,14.47,12.2,28.73,18.34,43.09h0l1.2,2.1,1.55-2.33h0l.09-.16.25-.37H551a385.59,385.59,0,0,0,36.43-102.42c4.27-20.59,6.44-41.45,8.91-62.23,2.31-19.41,5.07-38.88,5.28-58.33.29-26.89-.77-53.83-2.83-80.68C597,665.35,593,641.36,590,617.32c-3-23.79-8-47.57-8.38-71.39-.57-30.75.29-61.73,4.54-92.29,5.79-41.56,15.26-82.84,23.41-124.21,1.9-9.65,6.12-17.44,19.85-22.41,18.12-6.55,36.61-9.74,56.2-11.3,7.9-.63,12.49-.24,16.06,6.19,6.07,10.92,22.51,15.76,37.39,12.36C753,311.08,763.27,300.4,761.9,290.47Z"/></svg>