<svg id="Layer_1" data-name="Layer 1" xmlns="http://www.w3.org/2000/svg" xmlns:xlink="http://www.w3.org/1999/xlink" viewBox="0 0 1080 1080"><defs><style>.cls-1{fill:url(#linear-gradient);}.cls-2{fill:url(#linear-gradient-2);}.cls-3{opacity:0.2;fill:url(#linear-gradient-3);}</style><linearGradient id="linear-gradient" x1="752.45" y1="337.94" x2="752.45" y2="910.02" gradientUnits="userSpaceOnUse"><stop offset="0" stop-color="#f9df7b"/><stop offset="0.1" stop-color="#e1bc55"/><stop offset="0.2" stop-color="#cea137"/><stop offset="0.3" stop-color="#c08e21"/><stop offset="0.4" stop-color="#b88214"/><stop offset="0.49" stop-color="#b57e10"/><stop offset="0.7" stop-color="#b88214"/><stop offset="0.91" stop-color="#bf8d21"/><stop offset="1" stop-color="#c49328"/></linearGradient><linearGradient id="linear-gradient-2" x1="334.27" y1="337.99" x2="334.27" y2="910.09" xlink:href="#linear-gradient"/><linearGradient id="linear-gradient-3" x1="331.23" y1="541.6" x2="755.63" y2="541.6" gradientUnits="userSpaceOnUse"><stop offset="0" stop-color="#f9df7b"/><stop offset="0.1" stop-color="#e1bc55"/><stop offset="0.2" stop-color="#cea137"/><stop offset="0.3" stop-color="#c08e21"/><stop offset="0.4" stop-color="#b88214"/><stop offset="0.49" stop-color="#b57e10"/><stop offset="0.49" stop-color="#b88214"/><stop offset="0.49" stop-color="#c08d21"/><stop offset="0.5" stop-color="#cda036"/><stop offset="0.5" stop-color="#dfbb53"/><stop offset="0.5" stop-color="#f7dc78"/><stop offset="0.5" stop-color="#f9df7b"/><stop offset="1" stop-color="#c49328"/></linearGradient></defs><circle cx="540.44" cy="540.17" r="494.5"/><path class="cls-1" d="M910,462.33c-.38-4.29-2.32-6.2-7.37-8-84-30.22-166.33-62.85-245.87-99.33l-37.16-17c-8.65,38.28-17,75.44-25.43,112.61l1.45.26c8.61-19,17.23-37.91,26.12-57.47,3.33,1.31,5.49,2,7.48,3,65.82,30.61,134,58,203.93,82.9,11.31,4,14.45,8.95,14.66,17.47,1,39.6-5.86,78.38-20,116.51-21.58,58.27-57.41,111-109.32,157.34-14,12.52-29.14,24.4-44.5,36-14,10.55-28.92,20.34-45,31.53-5.45-42.53-10.53-82.2-15.61-121.86l-2.62.14c1.16,64.67-.14,129.24-16.63,193.68a29.41,29.41,0,0,0,3.76-1.08c68.53-34.91,129-76.36,178.35-126.35C846.83,711,890.47,631.2,904.87,542.49,909.2,515.79,912.34,489.22,910,462.33Z"/><path class="cls-2" d="M476,711.19l-2.7-.12c-5.68,41.28-11.36,82.55-17.07,124.07-2.23-1.29-4.95-2.64-7.33-4.29-18-12.44-36.65-24.42-53.73-37.54-36.45-28-66.73-59.52-90.95-94.19-31.93-45.7-53.31-94.06-60.75-145.43-3.09-21.37-2.78-43-3.39-64.56-.06-2.33,3.33-5.74,6.33-6.94,57-22.81,114.22-45.24,171.19-68.05,15.7-6.28,30.71-13.55,47.32-20.93l24.55,53.72,2.32-.41C483.55,410.66,475.37,374.8,467,338c-20.53,9.41-38.75,17.95-57.22,26.19C336.2,397,260.58,426.92,183.33,454.53c-4.94,1.77-6.7,3.88-6.52,7.74,1,21.28.59,42.64,3,63.83a381.65,381.65,0,0,0,32.53,117Q248.95,722.48,317.09,789c36.73,35.83,79.4,67.13,126.58,95.05,15.2,9,31.05,17.35,46.6,26C476.79,843.73,469.61,777.78,476,711.19Z"/><path class="cls-3" d="M755.51,289.68c-1.83-13.24-12.21-22.58-27.41-22.75q-11.48-.12-23-.14h-.54c-25.48-.05-51,.19-76.46.2-15.46,0-30.92-.28-46.37-.19-5.16,0-7.16-1.9-7.44-5.32-.46-5.73-.48-11.49-1.09-17.21-3.69-34.6-7.56-69.18-11.06-103.78-.2-2,1.66-4.78,3.71-6.28,14.8-10.84,16.11-26.91,2.72-37.59C554.93,85.69,533.1,85.35,519,95.83s-13.37,26.92,1.39,38.18c2.34,1.78,4.15,5.07,3.91,7.54-3.86,39.63-8.23,79.22-12.08,118.85-.5,5.14-3,6.78-9.35,6.74-17.57-.13-35.14,0-52.71,0-29.08-.1-58.17-.49-87.25-.25a45.76,45.76,0,0,0-17.9,3.77c-11.42,5.31-16,16-12.73,26.07,3,9.31,15,16.88,28.32,17.82,12.87.9,25.75-4.22,31-13.61,2.84-5.13,6.81-7.63,13.45-6.55,16.4,2.66,32.88,5.24,48.89,8.94,17.07,3.94,27.85,11.94,30.35,26.78,7,41.94,16.45,83.65,23.26,125.61,7.56,46.52,5.69,93.09-.83,139.73-6.42,45.92-12.8,92-15,138.06-1.7,36.16,1.61,72.58,5.31,108.73a409.94,409.94,0,0,0,26.28,107.61c5.65,14.47,12.2,28.73,18.33,43.08h0l1.19,2.1,1.56-2.33h0l.09-.16.24-.38-.06,0A385.5,385.5,0,0,0,581.1,889.75c4.27-20.58,6.44-41.43,8.91-62.21,2.31-19.41,5.06-38.87,5.28-58.32.29-26.88-.77-53.81-2.83-80.66-1.85-24.08-5.84-48.06-8.86-72.1-3-23.78-8-47.55-8.38-71.37-.57-30.75.29-61.72,4.54-92.27C585.55,411.26,595,370,603.17,328.63c1.9-9.65,6.11-17.43,19.84-22.4,18.12-6.55,36.6-9.74,56.19-11.3,7.9-.63,12.49-.24,16.06,6.19,6.06,10.92,22.5,15.76,37.38,12.36C746.62,310.28,756.88,299.61,755.51,289.68Z"/></svg>