<svg id="Layer_1" data-name="Layer 1" xmlns="http://www.w3.org/2000/svg" xmlns:xlink="http://www.w3.org/1999/xlink" viewBox="0 0 1080 1080"><defs><style>.cls-1{fill:url(#linear-gradient);}.cls-2{fill:url(#linear-gradient-2);}.cls-3{fill:url(#linear-gradient-3);}</style><linearGradient id="linear-gradient" x1="599.08" y1="630.62" x2="915.81" y2="630.62" gradientUnits="userSpaceOnUse"><stop offset="0" stop-color="#c29124"/><stop offset="0.54" stop-color="#f9df7b"/><stop offset="0.64" stop-color="#eeda8f"/><stop offset="0.87" stop-color="#d5d0bb"/><stop offset="0.99" stop-color="#ccc"/></linearGradient><linearGradient id="linear-gradient-2" x1="181.67" y1="630.68" x2="496.68" y2="630.68" gradientUnits="userSpaceOnUse"><stop offset="0" stop-color="#fbb03b"/><stop offset="0.23" stop-color="#b57e10"/><stop offset="0.53" stop-color="#b57e10"/><stop offset="0.61" stop-color="#ba8517"/><stop offset="1" stop-color="#cea236"/></linearGradient><linearGradient id="linear-gradient-3" x1="341.14" y1="548.36" x2="765.64" y2="548.07" gradientUnits="userSpaceOnUse"><stop offset="0" stop-color="#666"/><stop offset="0.18" stop-color="#686868"/><stop offset="0.24" stop-color="#6f6f6f"/><stop offset="0.29" stop-color="#7a7a7a"/><stop offset="0.3" stop-color="gray"/><stop offset="0.4" stop-color="#828282"/><stop offset="0.44" stop-color="#898989"/><stop offset="0.47" stop-color="#969696"/><stop offset="0.48" stop-color="#9f9f9f"/><stop offset="0.48" stop-color="#ababab"/><stop offset="0.48" stop-color="#c1c1c1"/><stop offset="0.49" stop-color="#d2d2d2"/><stop offset="0.49" stop-color="#ddd"/><stop offset="0.49" stop-color="#e4e4e4"/><stop offset="0.49" stop-color="#e6e6e6"/><stop offset="0.5" stop-color="#e6e6e6"/><stop offset="0.52" stop-color="#e6e6e6"/><stop offset="0.57" stop-color="#f2f2f2"/><stop offset="0.64" stop-color="#fbfbfb"/><stop offset="0.74" stop-color="#fefefe"/><stop offset="1" stop-color="#fff"/></linearGradient></defs><circle cx="545.39" cy="548.39" r="494.61"/><path class="cls-1" d="M915,468.93c-.39-4.29-2.33-6.2-7.38-8-84-30.22-166.36-62.86-245.92-99.35l-37.17-17c-8.64,38.28-17,75.46-25.43,112.63l1.45.26c8.61-19,17.23-37.92,26.12-57.48,3.33,1.31,5.49,2,7.49,3,65.83,30.62,134.07,58,204,82.92,11.31,4,14.46,8.95,14.67,17.47,1,39.61-5.86,78.39-20,116.54-21.58,58.28-57.43,111-109.35,157.37-14,12.52-29.14,24.4-44.5,36-14,10.55-28.93,20.34-45,31.54-5.45-42.55-10.53-82.22-15.62-121.89l-2.61.14c1.16,64.69-.15,129.27-16.64,193.73a28.81,28.81,0,0,0,3.76-1.09c68.54-34.91,129-76.38,178.39-126.38,70.61-71.57,114.26-151.42,128.66-240.15C914.23,522.41,917.37,495.83,915,468.93Z"/><path class="cls-2" d="M251.24,488.8c57-22.82,114.24-45.25,171.23-68.07,15.7-6.28,30.72-13.55,47.33-20.94,8.43,18.45,16.49,36.09,24.56,53.73l2.32-.41c-8.19-35.86-16.38-71.73-24.78-108.54-20.53,9.4-38.76,17.95-57.23,26.19-73.57,32.83-149.21,62.75-226.47,90.37-4.95,1.77-6.7,3.88-6.52,7.74,1,21.28.59,42.65,3,63.84a381.39,381.39,0,0,0,32.53,117q36.59,79.41,104.76,146c36.74,35.84,79.41,67.15,126.61,95.07,15.2,9,31,17.37,46.6,26-13.48-66.37-20.66-132.34-14.32-198.94l-2.7-.12q-8.52,61.92-17.07,124.09c-2.23-1.29-5-2.64-7.33-4.28-18-12.45-36.66-24.43-53.75-37.55-36.45-28-66.75-59.54-91-94.21-31.93-45.72-53.32-94.09-60.76-145.46-3.09-21.38-2.78-43-3.39-64.58C244.85,493.41,248.24,490,251.24,488.8Z"/><path class="cls-3" d="M760.5,296.25c-1.83-13.25-12.21-22.6-27.41-22.76q-11.49-.14-23-.14h-.53c-25.5-.05-51,.19-76.49.2-15.46,0-30.92-.28-46.38-.19-5.16,0-7.16-1.9-7.44-5.32-.46-5.74-.48-11.5-1.09-17.22-3.69-34.6-7.56-69.19-11.06-103.8-.2-2,1.66-4.78,3.71-6.28,14.8-10.84,16.12-26.92,2.73-37.61-13.7-10.92-35.53-11.27-49.65-.78s-13.37,26.92,1.39,38.19c2.34,1.78,4.15,5.07,3.91,7.54C525.36,187.71,521,227.32,517.14,267c-.5,5.15-3,6.79-9.35,6.74-17.57-.13-35.15.05-52.72,0-29.09-.1-58.19-.5-87.28-.26a45.84,45.84,0,0,0-17.9,3.78c-11.42,5.31-16,16-12.73,26.07,3,9.32,15,16.89,28.32,17.83,12.88.9,25.76-4.22,31-13.61,2.85-5.13,6.81-7.63,13.46-6.56,16.4,2.66,32.88,5.25,48.9,8.95,17.07,3.94,27.85,11.94,30.35,26.78,7,41.95,16.46,83.67,23.27,125.64,7.56,46.53,5.69,93.11-.83,139.76-6.42,45.93-12.8,92-15,138.09-1.71,36.17,1.6,72.6,5.31,108.76a410,410,0,0,0,26.28,107.64c5.65,14.46,12.2,28.73,18.34,43.09h0l1.19,2.1,1.55-2.33h0s0-.11.08-.16l.25-.37h-.06a386,386,0,0,0,36.43-102.43c4.26-20.59,6.44-41.45,8.91-62.23,2.3-19.41,5.06-38.87,5.27-58.32.3-26.89-.76-53.83-2.82-80.68-1.85-24.09-5.85-48.08-8.86-72.12-3-23.79-7.95-47.57-8.39-71.39-.56-30.76.29-61.73,4.55-92.29,5.79-41.57,15.26-82.84,23.41-124.22,1.9-9.65,6.11-17.44,19.84-22.4,18.12-6.55,36.61-9.74,56.2-11.3,7.91-.63,12.5-.25,16.07,6.18,6.06,10.92,22.5,15.77,37.39,12.37C751.62,316.85,761.88,306.18,760.5,296.25Z"/></svg>