<svg id="Layer_1" data-name="Layer 1" xmlns="http://www.w3.org/2000/svg" xmlns:xlink="http://www.w3.org/1999/xlink" viewBox="0 0 1080 1080"><defs><style>.cls-1{fill:url(#linear-gradient);}.cls-2{fill:url(#linear-gradient-2);}.cls-3{fill:url(#linear-gradient-3);}</style><linearGradient id="linear-gradient" x1="503.85" y1="539.5" x2="828.91" y2="727.18" gradientUnits="userSpaceOnUse"><stop offset="0" stop-color="#fff"/><stop offset="0.19" stop-color="#f2f2f2"/><stop offset="0.2" stop-color="#eaeaea"/><stop offset="0.27" stop-color="#b0b0b0"/><stop offset="0.31" stop-color="#999"/><stop offset="0.34" stop-color="#8d8d8d"/><stop offset="0.39" stop-color="#777"/><stop offset="0.44" stop-color="#6a6a6a"/><stop offset="0.49" stop-color="#666"/><stop offset="0.52" stop-color="#6a6a6a"/><stop offset="0.56" stop-color="#777"/><stop offset="0.59" stop-color="#8c8c8c"/><stop offset="0.63" stop-color="#a9a9a9"/><stop offset="0.66" stop-color="#cecece"/><stop offset="0.7" stop-color="#fcfcfc"/><stop offset="0.7" stop-color="#fff"/><stop offset="0.77" stop-color="#cecece"/><stop offset="0.83" stop-color="#a8a8a8"/><stop offset="0.87" stop-color="#999"/><stop offset="0.94" stop-color="#a9a9a9"/><stop offset="1" stop-color="#b3b3b3"/></linearGradient><linearGradient id="linear-gradient-2" x1="181.98" y1="451.97" x2="612.07" y2="700.28" xlink:href="#linear-gradient"/><linearGradient id="linear-gradient-3" x1="334.89" y1="540.93" x2="759.29" y2="540.93" gradientUnits="userSpaceOnUse"><stop offset="0" stop-color="#fff"/><stop offset="0.31" stop-color="#f2f2f2"/><stop offset="0.41" stop-color="#f0f0f0"/><stop offset="0.44" stop-color="#e9e9e9"/><stop offset="0.46" stop-color="#dedede"/><stop offset="0.48" stop-color="#cdcdcd"/><stop offset="0.48" stop-color="#ccc"/><stop offset="0.48" stop-color="#ccc"/><stop offset="0.49" stop-color="#ccc"/><stop offset="0.49" stop-color="#c7c7c7"/><stop offset="0.49" stop-color="#b8b8b8"/><stop offset="0.49" stop-color="#9f9f9f"/><stop offset="0.49" stop-color="gray"/><stop offset="0.5" stop-color="#888"/><stop offset="0.51" stop-color="#a7a7a7"/><stop offset="0.52" stop-color="#c3c3c3"/><stop offset="0.53" stop-color="#d9d9d9"/><stop offset="0.55" stop-color="#eaeaea"/><stop offset="0.56" stop-color="#f5f5f5"/><stop offset="0.59" stop-color="#fcfcfc"/><stop offset="0.66" stop-color="#fefefe"/><stop offset="1" stop-color="#fff"/></linearGradient></defs><circle cx="541.5" cy="539.5" r="494.5"/><path class="cls-1" d="M911,461.66c-.38-4.29-2.32-6.2-7.37-8-84-30.21-166.33-62.85-245.86-99.32-11.82-5.43-23.65-10.84-37.17-17l-25.42,112.6,1.44.26c8.62-18.95,17.23-37.91,26.12-57.46,3.33,1.3,5.49,2,7.49,2.95,65.82,30.62,134,58,203.92,82.9,11.31,4,14.46,9,14.67,17.47,1,39.6-5.86,78.38-20,116.51-21.58,58.27-57.42,111-109.33,157.34-14,12.52-29.13,24.4-44.49,36-13.95,10.55-28.92,20.34-45,31.54L614.43,715.54l-2.62.13c1.16,64.68-.14,129.24-16.64,193.69a27.8,27.8,0,0,0,3.76-1.09c68.53-34.9,129-76.36,178.35-126.35,70.6-71.55,114.24-151.39,128.64-240.09C910.26,515.13,913.4,488.55,911,461.66Z"/><path class="cls-2" d="M477,710.53l-2.7-.13C468.63,751.68,463,793,457.23,834.47c-2.22-1.29-5-2.64-7.32-4.28-18-12.45-36.65-24.42-53.74-37.55-36.44-28-66.73-59.52-90.95-94.19-31.92-45.7-53.31-94.06-60.74-145.42-3.09-21.37-2.78-43-3.39-64.57-.07-2.33,3.33-5.74,6.33-6.94,57-22.81,114.21-45.23,171.19-68,15.7-6.29,30.71-13.55,47.32-20.94,8.42,18.44,16.49,36.08,24.55,53.72l2.32-.41C484.61,410,476.42,374.13,468,337.33c-20.52,9.4-38.75,17.94-57.21,26.18-73.55,32.83-149.18,62.74-226.42,90.36-4.95,1.76-6.7,3.87-6.52,7.73,1,21.28.59,42.65,3,63.83a381.21,381.21,0,0,0,32.53,117Q250,721.82,318.15,788.36c36.73,35.83,79.39,67.13,126.58,95,15.19,9,31,17.36,46.59,26C477.84,843.07,470.66,777.11,477,710.53Z"/><path class="cls-3" d="M756.56,289c-1.83-13.25-12.2-22.59-27.4-22.76q-11.49-.12-23-.14h-.53c-25.49-.05-51,.19-76.47.21-15.45,0-30.91-.28-46.37-.2-5.16,0-7.16-1.89-7.43-5.31-.47-5.74-.49-11.5-1.1-17.22-3.68-34.59-7.56-69.18-11-103.78-.21-2,1.65-4.77,3.71-6.28,14.79-10.83,16.11-26.91,2.72-37.59C556,85,534.15,84.68,520,95.16s-13.37,26.92,1.38,38.18c2.35,1.79,4.16,5.08,3.92,7.54-3.86,39.63-8.24,79.23-12.08,118.85-.5,5.14-3,6.79-9.36,6.74-17.56-.13-35.13,0-52.7,0-29.09-.09-58.18-.49-87.26-.25A45.57,45.57,0,0,0,346.05,270c-11.43,5.3-16,15.95-12.74,26.06,3,9.32,15,16.89,28.32,17.82,12.87.9,25.75-4.22,31-13.61,2.85-5.12,6.82-7.63,13.46-6.55,16.39,2.66,32.88,5.25,48.89,8.94,17.07,3.94,27.85,11.94,30.34,26.78,7.05,41.94,16.46,83.65,23.27,125.61,7.55,46.52,5.69,93.09-.83,139.73-6.42,45.92-12.8,92-15,138.06-1.71,36.16,1.6,72.58,5.31,108.73a410.08,410.08,0,0,0,26.27,107.62c5.65,14.46,12.2,28.72,18.34,43.08h0l1.19,2.09,1.55-2.33h0l.08-.16.25-.37h-.06a386.14,386.14,0,0,0,36.42-102.4c4.26-20.59,6.44-41.44,8.9-62.22,2.31-19.4,5.07-38.86,5.28-58.31.3-26.89-.77-53.82-2.82-80.66-1.85-24.08-5.85-48.07-8.86-72.1-3-23.79-7.95-47.56-8.39-71.38-.56-30.75.29-61.71,4.55-92.27,5.79-41.55,15.26-82.82,23.4-124.18,1.9-9.65,6.12-17.44,19.84-22.4,18.12-6.56,36.61-9.75,56.19-11.31,7.9-.63,12.49-.24,16.06,6.19,6.06,10.92,22.5,15.76,37.38,12.36C747.68,309.62,757.94,299,756.56,289Z"/></svg>